<svg width="58" height="58" viewBox="0 0 58 58" fill="none" xmlns="http://www.w3.org/2000/svg">
<path d="M19.0756 12.2992C17.9172 12.2992 15.3781 15.913 13.3287 13.9571C12.6198 13.282 16.2577 11.8981 16.1111 10.7075C15.9903 9.72951 11.5323 8.25856 13.0903 7.32573C14.6482 6.39451 16.986 8.68067 18.7501 8.72095C22.5878 8.80956 25.5361 7.34667 25.578 7.32573C25.7849 7.22091 26.0106 7.15843 26.242 7.14194C26.4733 7.12545 26.7056 7.15529 26.9252 7.22971C27.1449 7.30413 27.3475 7.42164 27.5212 7.57534C27.6949 7.72904 27.8361 7.91586 27.9367 8.12484C28.3717 9.00612 28.0188 10.0791 27.1505 10.519C26.9394 10.6253 23.5657 12.2992 19.0756 12.2992Z" fill="#DD2E44"/>
<path d="M44.8179 58C38.4266 58 31.6358 53.3084 31.6358 44.6149C31.6358 42.4012 30.2019 41.9388 28.9984 41.9388C27.7965 41.9388 26.3626 42.4012 26.3626 44.6149C26.3626 53.3084 19.5702 58 13.1805 58C6.79083 58 0 53.5372 0 44.6149C0 23.2 22.8488 20.2436 22.8488 23.2C22.8488 26.1564 10.5463 21.4165 10.5463 42.8314C10.5463 46.4 11.9802 47.2926 13.1821 47.2926C14.3856 47.2926 15.8195 46.8302 15.8195 44.6165C15.8195 35.9246 22.6103 31.2314 29.0016 31.2314C35.3913 31.2314 42.1837 35.9229 42.1837 44.6165C42.1837 46.8302 43.6176 47.2926 44.8211 47.2926C46.0246 47.2926 47.4569 46.8302 47.4569 44.6165V17.8463C47.4569 11.6354 41.9517 10.7074 38.6699 10.7074C38.6699 10.7074 33.3983 12.4926 28.1252 12.4926C22.852 12.4926 21.0943 8.31011 21.0943 5.35372C21.0911 2.39733 28.1219 0 38.6667 0C49.213 0 58 7.17106 58 17.8463V44.6149C58 53.3084 51.2076 58 44.8179 58Z" fill="#4CB944"/>
<path d="M30.6111 6.44445C31.5009 6.44445 32.2222 5.72313 32.2222 4.83334C32.2222 3.94355 31.5009 3.22223 30.6111 3.22223C29.7213 3.22223 29 3.94355 29 4.83334C29 5.72313 29.7213 6.44445 30.6111 6.44445Z" fill="#292F33"/>
</svg>
