<svg width="235" height="93" viewBox="0 0 235 93" fill="none" xmlns="http://www.w3.org/2000/svg">
<path d="M0 0H235V93H0V0Z" fill="#2A2D34"/>
<path d="M19 47V43H15V39H23V43H35V35H19V31H15V23H19V19H39V23H43V27H35V23H23V31H39V35H43V43H39V47H19Z" fill="#4CB944"/>
<path d="M47 47V27H71V31H75V47H67V31H55V47H47Z" fill="#4CB944"/>
<path d="M83 47V43H79V39H83V35H99V31H83V27H103V31H107V47H83ZM87 43H99V39H87V43Z" fill="#4CB944"/>
<path d="M111 47V19H119V35H127V31H131V27H139V31H135V35H131V39H135V43H139V47H131V43H127V39H119V47H111Z" fill="#4CB944"/>
<path d="M147 47V43H143V31H147V27H167V31H171V39H151V43H167V47H147ZM151 35H163V31H151V35Z" fill="#4CB944"/>
<path d="M125 55.1328L213.528 18L225.519 46.5871L136.991 83.7199L125 55.1328Z" fill="#2A2D34"/>
<path d="M144.17 71.1966C144.169 70.7478 144.142 70.2643 144.09 69.7461C144.05 69.2007 143.99 68.6632 143.911 68.1334C143.844 67.5765 143.755 67.0507 143.645 66.5558C143.527 66.0417 143.383 65.5721 143.211 65.1471L143.106 64.8863C142.781 64.9724 142.449 65.0393 142.108 65.0868C141.787 65.1265 141.493 65.1216 141.226 65.0722C140.951 65.0034 140.69 64.8843 140.442 64.7149C140.205 64.5183 140.017 64.2462 139.876 63.8984C139.72 63.5121 139.653 63.1796 139.676 62.901C139.69 62.603 139.929 62.3605 140.393 62.1733C140.721 62.0407 141.062 61.9932 141.414 62.0308C141.778 62.0412 142.134 62.0885 142.482 62.1725L142.522 61.8532L141.688 55.281C141.447 54.7943 141.263 54.2842 141.138 53.7508C141.024 53.1902 141.047 52.664 141.208 52.1721C141.189 52.1799 141.131 52.2033 141.034 52.2423C140.93 52.262 140.859 52.2796 140.82 52.2952C140.511 52.42 140.221 52.5931 139.951 52.8145C139.673 53.0165 139.417 53.2437 139.181 53.4959C138.958 53.721 138.725 53.95 138.482 54.1829C138.231 54.3964 137.972 54.5907 137.706 54.7656C137.667 54.7812 137.582 54.7931 137.451 54.8013C137.338 54.8016 137.251 54.7806 137.189 54.7383C137.139 54.781 137.054 54.8489 136.935 54.9422C136.815 55.0354 136.682 55.1229 136.535 55.2046C136.388 55.2863 136.255 55.3738 136.135 55.467C136.008 55.5409 135.929 55.5953 135.898 55.6302L135.753 55.6887C135.367 55.8447 135.096 55.7295 134.94 55.3431C134.862 55.15 134.925 54.9447 135.129 54.7274C135.333 54.5101 135.59 54.283 135.899 54.046C136.2 53.7897 136.508 53.5527 136.825 53.3351C137.134 53.0981 137.352 52.8866 137.479 52.7005C137.861 52.3666 138.2 52.0947 138.497 51.8848C138.795 51.675 139.09 51.4883 139.383 51.3249C139.677 51.1615 139.969 51.0213 140.258 50.9043C140.56 50.7602 140.913 50.6063 141.319 50.4425C142.092 50.1305 142.903 49.9152 143.754 49.7964C144.616 49.6505 145.438 49.6556 146.22 49.8117C147.022 49.9601 147.748 50.2847 148.4 50.7855C149.07 51.2786 149.589 51.9791 149.956 52.887C150.299 53.7371 150.408 54.5917 150.283 55.4509C150.17 56.2831 149.923 57.0905 149.542 57.8731C149.181 58.648 148.738 59.3884 148.215 60.0941C147.702 60.7728 147.205 61.3779 146.723 61.9094C146.253 62.4138 145.85 62.8349 145.514 63.1725C145.19 63.483 145.032 63.648 145.04 63.6673L145.064 63.7252C145.071 63.7446 145.085 63.7503 145.104 63.7425C145.814 64.3322 146.502 64.8406 147.169 65.2679C147.847 65.6681 148.533 65.9754 149.226 66.1899C149.931 66.3772 150.668 66.4503 151.438 66.4091C152.2 66.3487 153.025 66.1391 153.914 65.7803C154.204 65.6633 154.478 65.5077 154.736 65.3135C154.995 65.1192 155.244 64.9289 155.483 64.7424C155.734 64.5288 155.979 64.3288 156.218 64.1423C156.457 63.9559 156.722 63.8042 157.012 63.6872C157.128 63.6404 157.269 63.6283 157.435 63.651C157.613 63.6466 157.733 63.7216 157.796 63.8762C157.921 64.1853 157.804 64.5358 157.445 64.9276C157.106 65.3117 156.693 65.6806 156.207 66.0342C155.721 66.3878 155.228 66.6988 154.73 66.9673C154.232 67.2359 153.905 67.4013 153.751 67.4637C152.36 68.0252 150.937 68.229 149.482 68.075C148.046 67.9132 146.717 67.3488 145.496 66.3816L145.351 66.4401C145.406 66.6876 145.492 67.0683 145.61 67.5825C145.739 68.0695 145.824 68.5857 145.864 69.1311C145.916 69.6493 145.9 70.1388 145.817 70.5994C145.744 71.0329 145.554 71.3121 145.245 71.4369C145.013 71.5305 144.798 71.5834 144.601 71.5956C144.423 71.6 144.28 71.467 144.17 71.1966ZM144.571 62.0033L144.715 61.9448C144.746 61.9099 144.802 61.8536 144.883 61.776C144.984 61.6906 145.03 61.6382 145.022 61.6189C145.543 61.0717 146.071 60.4878 146.606 59.8671C147.134 59.2271 147.581 58.5525 147.946 57.8434C148.312 57.1343 148.547 56.4101 148.653 55.6708C148.771 54.9045 148.666 54.1156 148.338 53.3042C148.127 52.7826 147.792 52.3678 147.33 52.0598C146.888 51.744 146.386 51.5308 145.825 51.4204C145.275 51.2829 144.718 51.2383 144.153 51.2865C143.581 51.3154 143.063 51.4234 142.599 51.6106L142.223 51.7627C142.478 51.8392 142.641 51.9645 142.711 52.1383C142.801 52.3044 142.888 52.4937 142.974 52.7062C142.998 52.7641 143.027 52.8646 143.062 53.0077C143.109 53.1236 143.132 53.1815 143.132 53.1815L144.278 61.2789L144.571 62.0033Z" fill="#FDFFFC"/>
<path d="M158.071 61.1363C158.063 61.0048 158.039 60.7785 158 60.4576C157.971 60.1095 157.926 59.746 157.863 59.367C157.819 58.9803 157.764 58.6207 157.697 58.2882C157.641 57.9286 157.61 57.683 157.602 57.5515C157.53 57.0411 157.463 56.4842 157.399 55.8809C157.354 55.2698 157.383 54.6739 157.486 54.0933C157.589 53.5127 157.804 52.9878 158.131 52.5186C158.47 52.0224 158.977 51.6377 159.654 51.3648C159.905 51.2634 160.118 51.2898 160.292 51.444C160.478 51.5711 160.653 51.7252 160.816 51.9066C160.847 51.9838 160.906 52.1287 160.991 52.3412C161.089 52.5266 161.153 52.6579 161.184 52.7352C161.519 53.5659 161.729 54.3351 161.812 55.0428C161.915 55.7427 161.902 56.4333 161.773 57.1146C161.662 57.7881 161.463 58.4638 161.175 59.1418C160.88 59.8004 160.528 60.5153 160.12 61.2864C160.124 61.3522 160.134 61.4605 160.15 61.6113C160.166 61.7621 160.186 61.8665 160.209 61.9245L160.233 61.9824C160.373 62.3302 160.544 62.5869 160.746 62.7526C160.948 62.9183 161.172 63.0298 161.42 63.087C161.679 63.1172 161.942 63.1008 162.209 63.0381C162.487 62.9482 162.781 62.8409 163.09 62.7161C163.998 62.3496 164.817 61.873 165.546 61.2866C166.275 60.7001 166.875 59.9863 167.344 59.1453C167.402 59.0097 167.463 58.8277 167.528 58.5993C167.605 58.3437 167.681 58.0881 167.758 57.8325C167.834 57.5769 167.932 57.3464 168.051 57.141C168.163 56.9163 168.315 56.7649 168.508 56.6869C168.702 56.609 168.849 56.6394 168.95 56.7784C169.051 56.9173 169.133 57.0641 169.195 57.2186C169.366 57.6436 169.395 58.1039 169.281 58.5995C169.178 59.0679 168.976 59.5425 168.676 60.0231C168.387 60.4767 168.019 60.9286 167.572 61.3788C167.144 61.8211 166.7 62.2249 166.241 62.59C165.782 62.9551 165.326 63.2738 164.874 63.5461C164.442 63.8105 164.062 64.009 163.733 64.1416C162.709 64.555 161.783 64.7378 160.955 64.6901C160.139 64.6154 159.398 64.1167 158.734 63.1942L158.071 61.1363ZM159.911 53.7548C159.665 54.2585 159.484 54.702 159.369 55.0854C159.266 55.4417 159.209 55.8016 159.199 56.1653C159.2 56.5019 159.222 56.8635 159.266 57.2503C159.329 57.6292 159.406 58.07 159.497 58.5726C159.747 58.1347 159.929 57.724 160.044 57.3406C160.178 56.9495 160.26 56.5681 160.29 56.1967C160.32 55.8252 160.303 55.45 160.24 55.071C160.169 54.6728 160.059 54.234 159.911 53.7548Z" fill="#FDFFFC"/>
<path d="M167.918 53.3869C167.925 53.294 167.956 53.1469 168.009 52.9456C168.055 52.7249 168.054 52.5566 168.007 52.4407L167.972 52.3538C167.965 52.3345 167.937 52.323 167.891 52.3192C167.837 52.2962 167.8 52.2886 167.781 52.2964L167.259 52.507C166.819 52.8643 166.302 53.1967 165.707 53.5042C165.093 53.8195 164.492 54.0845 163.905 54.2992C163.298 54.5216 162.767 54.68 162.311 54.7743C161.847 54.8493 161.553 54.8444 161.428 54.7597C161.304 54.675 161.395 54.4812 161.699 54.1785C161.996 53.8565 162.621 53.4018 163.575 52.8146C163.633 52.7912 163.761 52.7173 163.957 52.5929C164.127 52.457 164.33 52.319 164.565 52.179C164.782 52.0467 164.988 51.9184 165.185 51.794C165.374 51.6502 165.498 51.5667 165.556 51.5433C165.625 51.4928 165.786 51.4168 166.037 51.3154C166.28 51.1947 166.523 51.074 166.767 50.9533C167.029 50.8248 167.277 50.7138 167.508 50.6202C167.76 50.5188 167.933 50.4486 168.03 50.4096L168.105 50.1772L168.833 45.4687C168.855 45.3023 168.948 45.1414 169.11 44.9862C169.291 44.8231 169.439 44.7182 169.555 44.6714C169.806 44.57 170.023 44.6061 170.206 44.7796C170.38 44.9338 170.506 45.1074 170.584 45.3006C170.592 45.3199 170.59 45.3432 170.579 45.3703C170.587 45.3896 170.594 45.4089 170.602 45.4282L170.649 45.5441L170.626 49.1595L170.696 49.3334C170.688 49.2019 170.732 49.1166 170.829 49.0776C170.945 49.0308 171.031 48.9957 171.089 48.9723C171.379 48.8553 171.698 48.8388 172.047 48.9228C172.395 49.0068 172.636 49.2131 172.768 49.5415C172.831 49.696 172.833 49.8411 172.776 49.9767C172.718 50.1123 172.633 50.2363 172.521 50.3489C172.41 50.4614 172.284 50.5682 172.145 50.6692C171.998 50.7509 171.867 50.8152 171.751 50.862C171.519 50.9556 171.286 51.0163 171.05 51.0441C170.833 51.0642 170.609 51.121 170.377 51.2146C170.164 51.3003 170.018 51.4942 169.938 51.7963C169.85 52.0789 169.803 52.435 169.796 52.8645C169.801 53.2668 169.845 53.7096 169.928 54.1929C170.011 54.6762 170.099 55.146 170.194 55.6022C170.288 56.0584 170.39 56.4778 170.499 56.8605C170.628 57.2353 170.732 57.5194 170.81 57.7125C170.841 57.7898 170.903 57.9444 170.997 58.1762C171.11 58.4002 171.182 58.5509 171.213 58.6281C171.279 58.7362 171.37 58.823 171.487 58.8884C171.595 58.9345 171.707 58.9902 171.824 59.0556L172.49 58.7865C173.263 58.4746 173.956 57.9927 174.569 57.3408C175.201 56.6811 175.766 55.9926 176.263 55.2753C176.293 55.2404 176.345 55.1184 176.418 54.9092C176.502 54.673 176.6 54.4425 176.712 54.2177C176.816 53.9737 176.908 53.7567 176.988 53.5669C177.088 53.3693 177.167 53.2588 177.225 53.2354C177.36 53.1808 177.513 53.1977 177.684 53.2862C177.854 53.3746 177.971 53.4961 178.033 53.6506C178.181 54.0177 178.19 54.4297 178.06 54.8866C177.95 55.3357 177.754 55.7967 177.473 56.2696C177.184 56.7231 176.83 57.1808 176.409 57.6425C175.989 58.1042 175.553 58.5273 175.102 58.9117C174.67 59.2883 174.241 59.6185 173.817 59.9023C173.412 60.1783 173.064 60.3747 172.774 60.4917C172.504 60.6009 172.212 60.685 171.899 60.744C171.578 60.7838 171.27 60.7731 170.976 60.7122C170.682 60.6512 170.411 60.536 170.162 60.3666C169.914 60.1971 169.72 59.9386 169.58 59.5908L168.281 56.3743L167.918 53.3869Z" fill="#FDFFFC"/>
<path d="M176.297 55.0257C176.674 54.4016 176.91 53.8457 177.005 53.358C177.12 52.8624 177.176 52.3902 177.175 51.9415C177.173 51.4927 177.135 51.0363 177.06 50.5723C176.977 50.089 176.937 49.5437 176.939 48.9363C176.807 48.8322 176.712 48.7358 176.653 48.647C176.607 48.5311 176.552 48.3959 176.49 48.2413C176.427 48.0868 176.373 47.8955 176.325 47.6674C176.298 47.4315 176.297 47.2071 176.323 46.9942C176.342 46.762 176.391 46.551 176.472 46.3612C176.553 46.1714 176.69 46.0375 176.883 45.9595C176.895 46.0446 177.036 46.0886 177.307 46.0916C177.597 46.0868 177.939 46.0722 178.334 46.0477C178.748 46.0155 179.185 45.9851 179.645 45.9565C180.105 45.928 180.521 45.9286 180.893 45.9583C181.318 46.0111 181.646 46.1262 181.875 46.3034C182.115 46.4535 182.317 46.7314 182.481 47.1371C182.629 47.5041 182.748 47.939 182.839 48.4416C182.949 48.9365 183.053 49.4449 183.151 49.9668C183.261 50.4617 183.365 50.9701 183.464 51.492C183.574 51.9869 183.707 52.4275 183.862 52.8138L184.167 53.5673C184.218 53.7489 184.295 53.8299 184.4 53.8102C184.515 53.7635 184.622 53.7206 184.718 53.6816C184.95 53.588 185.147 53.4636 185.309 53.3083C185.471 53.153 185.629 52.9881 185.783 52.8135C185.957 52.6311 186.125 52.4623 186.287 52.3071C186.441 52.1325 186.616 51.983 186.813 51.8585L188.732 49.2643C188.754 49.0979 188.808 48.9526 188.893 48.8286C188.989 48.6774 189.079 48.5397 189.164 48.4157C189.31 48.2218 189.476 47.964 189.661 47.6423C189.749 47.4718 189.847 47.2974 189.955 47.1191L190.824 46.7681C190.882 46.7447 190.944 46.7871 191.01 46.8952C191.076 47.0033 191.121 47.0864 191.145 47.1443C191.238 47.3761 191.191 47.7322 191.003 48.2125C190.815 48.6928 190.534 49.2218 190.161 49.7994C189.787 50.377 189.356 50.9781 188.867 51.6025C188.369 52.2076 187.87 52.7798 187.369 53.3191C186.887 53.8507 186.421 54.3087 185.969 54.6931C185.537 55.0697 185.186 55.3127 184.915 55.4218C184.568 55.5622 184.252 55.5884 183.97 55.5003C183.687 55.4122 183.427 55.2699 183.191 55.0733C182.954 54.8768 182.748 54.6453 182.573 54.379C182.41 54.0855 182.27 53.7938 182.153 53.504C182.067 53.2915 182.014 52.9648 181.993 52.5238C181.972 52.0829 181.967 51.6245 181.977 51.1486C181.987 50.6727 181.982 50.2143 181.961 49.7733C181.94 49.3324 181.883 48.996 181.79 48.7641C181.782 48.7448 181.606 48.726 181.261 48.7078C180.936 48.6817 180.578 48.6577 180.187 48.6358C179.789 48.5945 179.421 48.5744 179.085 48.5755C178.76 48.5494 178.593 48.5267 178.585 48.5074C178.34 49.1233 178.231 49.7175 178.26 50.29C178.309 50.8546 178.355 51.4425 178.399 52.0536C178.463 52.657 178.44 53.2954 178.33 53.9689C178.239 54.6346 177.923 55.3803 177.38 56.206C177.36 56.2138 177.318 56.2198 177.252 56.2239C177.167 56.2357 177.08 56.2147 176.991 56.1609C176.875 56.0955 176.762 55.9836 176.653 55.8254C176.537 55.6478 176.418 55.3812 176.297 55.0257Z" fill="#FDFFFC"/>
<path d="M191.033 50.4582C191.026 50.4389 191.008 50.3674 190.98 50.2436C190.953 50.1199 190.925 49.9962 190.898 49.8725C190.863 49.7295 190.835 49.6058 190.816 49.5014C190.788 49.3777 190.767 49.2965 190.751 49.2579L190.634 48.9681L190.303 46.9787C190.35 46.1507 190.419 45.3477 190.51 44.5698C190.619 43.7841 190.809 43.0562 191.077 42.3861C191.346 41.7159 191.721 41.1151 192.203 40.5835C192.704 40.0442 193.39 39.5991 194.259 39.2481C194.433 39.1779 194.669 39.1501 194.967 39.1646C195.276 39.152 195.588 39.1723 195.901 39.2255C196.234 39.2708 196.542 39.3375 196.824 39.4256C197.119 39.4866 197.351 39.5613 197.521 39.6497C198.081 39.3114 198.497 39.0876 198.767 38.9784C199.03 38.8499 199.258 38.7467 199.451 38.6687C199.636 38.5714 199.823 38.4508 200.012 38.3071C200.221 38.1555 200.518 37.8896 200.904 37.5092C201.193 37.2801 201.492 37.1031 201.801 36.9783C201.937 36.9237 202.086 36.931 202.248 37.0001C202.43 37.0614 202.552 37.1693 202.615 37.3239C202.693 37.5171 202.695 37.7182 202.623 37.9274C202.55 38.1365 202.425 38.2994 202.247 38.416L198.952 40.6897L198.692 40.9633C199.094 42.0143 199.264 43.1028 199.202 44.2287C199.139 45.3547 198.885 46.4233 198.44 47.4344C197.994 48.4456 197.374 49.3586 196.58 50.1736C195.778 50.9692 194.855 51.5776 193.812 51.9987C193.735 52.0299 193.605 52.071 193.424 52.1218C193.25 52.192 193.134 52.2388 193.076 52.2622C192.581 52.2599 192.153 52.0621 191.792 51.6686C191.45 51.2673 191.197 50.8639 191.033 50.4582ZM193.122 50.289C193.18 50.3778 193.277 50.3949 193.412 50.3403C193.547 50.2858 193.644 50.2468 193.702 50.2234C194.397 49.9426 195.042 49.4802 195.636 48.8361C196.222 48.1727 196.691 47.4439 197.045 46.6497C197.41 45.8283 197.631 44.9862 197.71 44.1232C197.8 43.2332 197.697 42.4211 197.4 41.687C196.782 41.9365 196.144 42.1378 195.487 42.2908C194.822 42.4244 194.2 42.6082 193.62 42.8422L193.591 42.8539L192.216 46.3749C192.135 46.5647 192.103 46.7911 192.119 47.0542C192.136 47.3172 192.179 47.5917 192.25 47.8778C192.32 48.1638 192.4 48.446 192.49 48.7242C192.58 49.0025 192.668 49.2479 192.754 49.4604C192.777 49.5183 192.832 49.6536 192.917 49.8661C193.003 50.0786 193.071 50.2196 193.122 50.289Z" fill="#FDFFFC"/>
</svg>
